<?xml version="1.0" encoding="utf-8"?>
<!-- Generator: Adobe Illustrator 19.2.0, SVG Export Plug-In . SVG Version: 6.00 Build 0)  -->
<svg version="1.1" id="Ebene_1" xmlns="http://www.w3.org/2000/svg" xmlns:xlink="http://www.w3.org/1999/xlink" x="0px" y="0px"
	 viewBox="0 0 138.8 23.7" style="enable-background:new 0 0 138.8 23.7;" xml:space="preserve">
<style type="text/css">
	.st0{clip-path:url(#SVGID_2_);fill:#010202;}
</style>
<g>
	<defs>
		<rect id="SVGID_1_" y="-0.1" width="138.8" height="23.8"/>
	</defs>
	<clipPath id="SVGID_2_">
		<use xlink:href="#SVGID_1_"  style="overflow:visible;"/>
	</clipPath>
	<path class="st0" d="M45.9,11.3l5.7-11.3l11.3,22.6L45.9,11.3z M62.2,23.7H39.7l5.6-11.2L62.2,23.7z M89.2,21.9V-0.1h-9.9v10.8
		L89.2,21.9z M79.3,12.9L79.3,12.9l0.9,1L79.3,12.9z M80.6,14.3L67.4-0.1v23.8H89L80.6,14.3z M131.6,17.8h7.2v6h-7.2V17.8z
		 M131.6,8.9h7.2v5.9h-7.2V8.9z M131.6,0h7.2v5.9h-7.2V0z M130.2,22.9L121,11.8V-0.1h9.2V22.9z M16,3.5c-1.6-2.1-4.2-3.5-7.1-3.5
		C4-0.1,0,3.9,0,8.9c0,2.9,1.4,5.5,3.5,7.1L16,3.5z M1.1,20.3c1.6,2.1,4.2,3.4,7,3.4c4.9,0,8.9-4,8.9-8.9c0-2.8-1.3-5.4-3.4-7
		L1.1,20.3z M21.8,14.8V-0.1h14.8L21.8,14.8z M33.8,4.8L35.7,6v17.7h-9.9v-11L33.8,4.8z M34.8,3.8l3.8-3.8h1.1v7L34.8,3.8z
		 M114.4,19.3c1.8-2.2,2.6-4.9,2.6-7.4l-10,0L114.4,19.3z M105.1,11.8l8.4-8.4c-4.6-4.6-12.2-4.6-16.8,0c-4.6,4.6-4.6,12.2,0,16.8
		c4.6,4.6,12.1,4.6,16.8,0L105.1,11.8L105.1,11.8L105.1,11.8z"/>
</g>
</svg>
